<?xml version="1.0" encoding="utf-8"?>
<!-- Generator: Adobe Illustrator 23.0.3, SVG Export Plug-In . SVG Version: 6.00 Build 0)  -->
<svg version="1.1" id="Calque_1" xmlns="http://www.w3.org/2000/svg" xmlns:xlink="http://www.w3.org/1999/xlink" x="0px" y="0px"
	 viewBox="0 0 272.39 272.39" style="enable-background:new 0 0 272.39 272.39;" xml:space="preserve">
<style type="text/css">
	.st0{opacity:0.8;fill:#EE7700;enable-background:new    ;}
	.st1{fill:#FFFFFF;}
</style>
<path class="st0" d="M272.39,35.37v201.66c0,19.53-15.84,35.36-35.37,35.36H35.37C15.84,272.4,0,256.57,0,237.04
	c0-0.01,0-0.01,0-0.01V35.37C0,15.84,15.83,0.01,35.36,0c0,0,0,0,0.01,0h201.65C256.55,0.01,272.39,15.84,272.39,35.37z"/>
<path class="st0" d="M272.39,128.45v108.58c0,19.53-15.84,35.36-35.37,35.36h-95.68l-68.35-56.07c0-0.01-0.01-0.01-0.02-0.01
	l-3.76-3.08c-2.11-2.55-3.16-5.93-3.16-10.14V87.5l35.98-43.86h28.39c23.51,0,42.69,5.18,57.53,15.55l8.75,7.17L272.39,128.45z"/>
<path class="st1" d="M196.9,66.55c-0.07-0.06-0.13-0.13-0.2-0.19c-2.72-2.62-5.64-5.01-8.75-7.17
	c-14.84-10.37-34.02-15.55-57.53-15.55H81.4c-4.79,0-8.54,1.33-11.26,3.97c-2.73,2.64-4.09,6.35-4.09,11.14v144.34
	c0,4.21,1.05,7.59,3.16,10.14c0.29,0.35,0.6,0.68,0.93,1c0.84,0.82,1.79,1.51,2.83,2.08c0.01,0,0.02,0,0.02,0.01
	c2.32,1.25,5.12,1.87,8.41,1.87h49.02c28.55,0,50.71-7.63,66.48-22.9c15.76-15.27,23.64-36.77,23.64-64.5
	C220.54,103.23,212.66,81.81,196.9,66.55z M128.44,192.19H97.99V69.64h30.45c40.11,0,60.16,20.39,60.16,61.15
	C188.6,171.73,168.55,192.19,128.44,192.19z"/>
</svg>
